 <svg version="1.0" xmlns="http://www.w3.org/2000/svg" width="700.000000pt" height="700.000000pt" viewBox="0 0 700.000000 700.000000" preserveAspectRatio="xMidYMid meet">
<g transform="translate(0.000000,700.000000) scale(0.100000,-0.100000)" fill="#000000" stroke="none">
<path d="M0 3500 l0 -3500 3500 0 3500 0 0 3500 0 3500 -3500 0 -3500 0 0
-3500z m2988 418 l-3 -1713 -28 -90 c-61 -190 -135 -314 -271 -451 -215 -214
-447 -304 -786 -304 -213 0 -375 32 -515 102 -383 192 -596 554 -583 993 l3
109 165 28 c237 39 210 52 210 -104 0 -73 5 -161 10 -196 21 -150 114 -314
234 -412 137 -113 273 -160 469 -160 145 0 234 18 347 73 69 33 101 57 170
127 87 87 126 149 173 275 l22 60 3 1688 2 1687 190 0 190 0 -2 -1712z m2457
1678 c415 -129 688 -440 750 -856 22 -145 21 -685 -1 -824 -64 -404 -351 -730
-739 -840 -134 -38 -273 -46 -782 -46 l-463 0 0 -805 0 -805 -187 2 -188 3 -3
2103 -2 2103 762 -3 763 -4 90 -28z"></path>
<path d="M4222 5262 c-10 -6 -12 -200 -10 -933 l3 -924 485 -3 c329 -2 509 1
560 8 139 22 270 91 376 201 73 74 115 141 151 239 l28 75 3 370 c2 239 -1
393 -8 435 -6 38 -30 104 -57 159 -37 78 -59 109 -127 177 -68 67 -99 90 -177
128 -52 25 -117 51 -144 57 -60 14 -1063 24 -1083 11z"></path>
</g>
</svg>